<?xml version="1.0" encoding="UTF-8"?>
<svg width="99px" height="39px" viewBox="0 0 99 39" version="1.1" xmlns="http://www.w3.org/2000/svg" xmlns:xlink="http://www.w3.org/1999/xlink">
    <!-- Generator: sketchtool 46.2 (44496) - http://www.bohemiancoding.com/sketch -->
    <title>975E63C8-69CE-4187-A0C4-6B057AC46CA5</title>
    <desc>Created with sketchtool.</desc>
    <defs>
        <polygon id="path-1" points="0 38.940096 98.7711792 38.940096 98.7711792 0 0 0"></polygon>
    </defs>
    <g id="Final" stroke="none" stroke-width="1" fill="none" fill-rule="evenodd">
        <g id="Home_page" transform="translate(-80.000000, -589.000000)">
            <g id="Here-image" transform="translate(-16.000000, -199.000000)">
                <g id="w_logo" transform="translate(96.000000, 788.000000)">
                    <g id="Page-1">
                        <path d="M45.5524528,19.5407472 C47.4069906,15.8660112 49.0121604,13.9771632 50.3452358,12.7793952 C52.0543868,11.3953632 53.6013396,10.5960192 56.1255283,10.6431312 C58.9277264,10.6933632 61.3880943,12.1273152 62.8151887,14.2938432 L66.6285566,14.2938432 C64.919717,10.1645232 60.8644528,7.2579312 56.1255283,7.2579312 C52.939783,7.2579312 49.7913962,8.4547632 47.726717,10.5701232 C45.5203868,12.7313472 44.2769717,15.3652512 42.998066,17.5005792 C40.689,21.3550272 39.7049151,22.7303232 38.8624811,23.5933152 C38.2171132,24.2547552 37.7383019,24.6157392 36.9263774,25.1027712 C36.0254151,25.6428432 34.5329434,26.4013152 32.4249906,26.4013152 C28.0095283,26.4013152 24.4280943,22.8136272 24.4280943,18.3869712 C24.4280943,13.9621872 28.0095283,10.3738752 32.4249906,10.3738752 C35.9105377,10.3738752 38.9565,12.9144912 40.0498585,16.0344912 C40.7593585,16.2195072 42.288566,16.6141872 42.288566,16.6141872 L43.1559057,14.7393792 C41.5448208,10.4106912 37.3058774,6.9905472 32.4249906,6.9905472 C26.1450283,6.9905472 21.0502642,12.0933072 21.0502642,18.3869712 C21.0502642,24.6806352 26.1450283,29.7746592 32.4249906,29.7821472 C34.5067925,29.7846432 36.4964434,29.1703152 38.1729057,28.1784672 C39.6750283,27.2898912 40.2089434,26.7479472 40.8160189,26.1682512 C42.1870755,24.8578512 44.0073679,22.5328272 45.5502736,19.5407472 L45.5524528,19.5407472 Z M9.63973585,7.0204992 C7.04736792,7.0204992 4.95871698,8.0320032 3.27976415,10.1152272 L3.27976415,7.4872512 L0,7.4872512 L0,29.3416032 L3.43386792,29.3416032 L3.43386792,17.0728272 C3.43386792,14.7674592 3.97525472,13.1868672 5.13274528,12.0973632 C6.37366981,10.9364112 7.85275472,10.3457952 9.52579245,10.3457952 C13.3531698,10.3457952 15.9256132,13.1257152 15.9256132,17.2672032 L15.9256132,29.3416032 L19.3594811,29.3416032 L19.3594811,16.9938912 C19.3594811,13.9802832 18.3199811,11.3900592 16.4333774,9.7027632 C14.5386792,7.9730352 12.1281226,7.0204992 9.63973585,7.0204992 Z" id="Fill-1" fill="#FFFFFF"></path>
                        <path d="M94.3784434,22.0113192 C93.3050094,24.5753352 90.1591132,26.5084872 87.0630283,26.5084872 C83.1976698,26.5084872 79.5337358,23.2452792 79.3481887,19.7140632 L98.579717,19.7140632 L98.5697547,19.4235912 C98.4579906,16.5329112 98.0339717,13.5052632 95.6993774,10.9153512 C93.3990283,8.3575752 90.4670094,7.0075512 87.2171321,7.0075512 C80.9592736,7.0075512 75.8685566,12.1433832 75.8685566,18.4579512 C75.8685566,24.8358552 80.8870472,29.8353432 87.2949623,29.8353432 C91.904066,29.8353432 96.2631792,26.7025512 97.8920094,22.2156792 L98.0280566,21.8372232 L94.4522264,21.8372232 L94.3784434,22.0113192 Z M70.0381415,29.3286552 L73.4716981,29.3286552 L73.4716981,3.12e-05 L70.0381415,3.12e-05 L70.0381415,29.3286552 Z M67.4218019,18.1094472 L66.7403208,18.1094472 L64.0480189,18.1094472 L56.3910849,18.1094472 L56.3910849,21.5788872 L63.5122358,21.5788872 C62.3410472,24.5494392 59.4569717,26.6585592 56.0772736,26.6585592 C52.593283,26.6585592 49.5454528,24.1148232 48.4520943,20.9938872 C47.7425943,20.8094952 46.2136981,20.4151272 46.2136981,20.4151272 L45.3441792,22.2899352 C46.9552642,26.6186232 51.1963868,30.0397032 56.0772736,30.0397032 C62.3575472,30.0397032 67.4479528,24.9360072 67.4479528,18.6423432 C67.4479528,18.4638792 67.4298962,18.2897832 67.4218019,18.1094472 L67.4218019,18.1094472 Z M95.0300377,16.5432072 L79.3721604,16.5432072 C80.2756132,12.8684712 83.4694528,10.3325352 87.2569811,10.3325352 C90.8626981,10.3325352 94.2103302,13.0357032 95.0300377,16.5432072 L95.0300377,16.5432072 Z" id="Fill-3" fill="#FFFFFF"></path>
                        <path d="M2.90910566,33.7588368 C3.19520943,33.7588368 3.47539811,33.7912848 3.7496717,33.8561808 C4.02394528,33.9213888 4.3197,34.0324608 4.63724717,34.1890848 L4.63724717,35.1073008 C4.32686038,34.9288368 4.04013396,34.7999808 3.7767566,34.7207328 C3.51337925,34.6408608 3.23879434,34.6012368 2.95237925,34.6012368 C2.59373774,34.6012368 2.27058679,34.6754928 1.98168113,34.8236928 C1.69339811,34.9718928 1.46893585,35.1809328 1.30891698,35.4508128 C1.14920943,35.7210048 1.0692,36.0208368 1.0692,36.3512448 C1.0692,36.6888288 1.14858679,36.9911568 1.30704906,37.2588528 C1.46582264,37.5262368 1.68966226,37.7330928 1.9782566,37.8787968 C2.26685094,38.0245008 2.59124717,38.0975088 2.95237925,38.0975088 C3.22883208,38.0975088 3.49283208,38.0575728 3.74437925,37.9783248 C3.99561509,37.8987648 4.31253962,37.7552448 4.69484151,37.5480768 L4.69484151,38.4662928 C4.36795472,38.6375808 4.06721887,38.7592608 3.79294528,38.8316448 C3.5186717,38.9037168 3.19894528,38.9399088 2.83345472,38.9399088 C2.30171887,38.9399088 1.8266434,38.8341408 1.4082283,38.6216688 C0.989813208,38.4098208 0.66074717,38.1040608 0.42165283,37.7050128 C0.18224717,37.3062768 0.0623886792,36.8694768 0.0623886792,36.3946128 C0.0623886792,35.8857408 0.185671698,35.4292848 0.432237736,35.0243088 C0.678803774,34.6193328 1.0181434,34.3070208 1.44994528,34.0876848 C1.88143585,33.8683488 2.36803019,33.7588368 2.90910566,33.7588368" id="Fill-5" fill="#FFFFFF"></path>
                        <path d="M7.64550849,36.9044208 L9.27278208,36.9044208 L8.42100849,34.9048128 L7.64550849,36.9044208 Z M8.91538585,33.8237328 L11.1413292,38.8747008 L10.1133481,38.8747008 L9.59001792,37.6457328 L7.34975377,37.6457328 L6.86253679,38.8747008 L5.84140472,38.8747008 L7.91978208,33.8237328 L8.91538585,33.8237328 Z" id="Fill-7" fill="#FFFFFF"></path>
                        <path d="M14.1783877,35.993256 C14.4383406,35.993256 14.6406991,35.933664 14.7863972,35.814168 C14.931784,35.694984 15.004633,35.518392 15.004633,35.284704 C15.004633,34.819512 14.7063877,34.58676 14.1098972,34.58676 L13.44585,34.58676 L13.44585,35.993256 L14.1783877,35.993256 Z M14.4199726,33.823608 C14.8916236,33.823608 15.2745481,33.960576 15.5693689,34.2342 C15.8638783,34.507824 16.0114443,34.860384 16.0114443,35.291568 C16.0114443,35.728056 15.8620104,36.08124 15.5637651,36.35112 C15.2655198,36.621312 14.8723217,36.756096 14.3841708,36.756096 L13.44585,36.756096 L13.44585,38.874888 L12.4720387,38.874888 L12.4720387,33.823608 L14.4199726,33.823608 Z" id="Fill-9" fill="#FFFFFF"></path>
                        <mask id="mask-2" fill="white">
                            <use xlink:href="#path-1"></use>
                        </mask>
                        <g id="Clip-12"></g>
                        <polygon id="Fill-11" fill="#FFFFFF" mask="url(#mask-2)" points="17.5475943 38.874888 18.521717 38.874888 18.521717 33.82392 17.5475943 33.82392"></polygon>
                        <polygon id="Fill-13" fill="#FFFFFF" mask="url(#mask-2)" points="24.5747887 33.8237328 24.5747887 34.5865728 22.785317 34.5865728 22.785317 38.8747008 21.8111943 38.8747008 21.8111943 34.5865728 20.0217226 34.5865728 20.0217226 33.8237328"></polygon>
                        <path d="M26.7461264,36.9044208 L28.3730887,36.9044208 L27.5216264,34.9048128 L26.7461264,36.9044208 Z M28.0156925,33.8237328 L30.2419472,38.8747008 L29.2136547,38.8747008 L28.6906358,37.6457328 L26.4500604,37.6457328 L25.9628434,38.8747008 L24.9420226,38.8747008 L27.0200887,33.8237328 L28.0156925,33.8237328 Z" id="Fill-14" fill="#FFFFFF" mask="url(#mask-2)"></path>
                        <polygon id="Fill-15" fill="#FFFFFF" mask="url(#mask-2)" points="32.5465925 33.8237328 32.5465925 38.1118608 34.9926396 38.1118608 34.9926396 38.8747008 31.5724698 38.8747008 31.5724698 33.8237328"></polygon>
                        <polygon id="Fill-16" fill="#FFFFFF" mask="url(#mask-2)" points="40.0675415 33.8237328 41.7234566 35.8161648 43.379683 33.8237328 44.2492019 33.8237328 44.2492019 38.8747008 43.2750792 38.8747008 43.2750792 35.3278848 43.2461264 35.3278848 41.7882113 37.1069088 41.6515415 37.1069088 40.1936264 35.3278848 40.1646736 35.3278848 40.1646736 38.8747008 39.1908623 38.8747008 39.1908623 33.8237328"></polygon>
                        <path d="M47.3835792,36.9044208 L49.0108528,36.9044208 L48.1590792,34.9048128 L47.3835792,36.9044208 Z M48.6534566,33.8237328 L50.8794,38.8747008 L49.8514189,38.8747008 L49.3280887,37.6457328 L47.0878245,37.6457328 L46.6006075,38.8747008 L45.5794755,38.8747008 L47.6575415,33.8237328 L48.6534566,33.8237328 Z" id="Fill-17" fill="#FFFFFF" mask="url(#mask-2)"></path>
                        <polygon id="Fill-18" fill="#FFFFFF" mask="url(#mask-2)" points="53.065183 33.8237328 56.059466 37.3490208 56.059466 33.8237328 57.0121075 33.8237328 57.0121075 38.8747008 56.1752774 38.8747008 53.1623151 35.2916928 53.1623151 38.8747008 52.2099849 38.8747008 52.2099849 33.8237328"></polygon>
                        <path d="M60.1428736,36.9044208 L61.7701472,36.9044208 L60.9186849,34.9048128 L60.1428736,36.9044208 Z M61.4127509,33.8237328 L63.6386943,38.8747008 L62.6107132,38.8747008 L62.0876943,37.6457328 L59.8471189,37.6457328 L59.3599019,38.8747008 L58.3390811,38.8747008 L60.4171472,33.8237328 L61.4127509,33.8237328 Z" id="Fill-19" fill="#FFFFFF" mask="url(#mask-2)"></path>
                        <path d="M67.3938453,33.7588368 C68.0143075,33.7588368 68.6301,33.8973648 69.2412226,34.1744208 L69.2412226,35.0676768 C68.6301,34.7566128 68.0289396,34.6012368 67.4374302,34.6012368 C67.0691377,34.6012368 66.7419396,34.6748688 66.4558358,34.8218208 C66.1694208,34.9687728 65.9474491,35.1803088 65.7902321,35.4561168 C65.6327038,35.7325488 65.5539396,36.0401808 65.5539396,36.3802608 C65.5539396,36.8959968 65.7254774,37.3112688 66.0679302,37.6257648 C66.4106943,37.9402608 66.8624208,38.0975088 67.4231094,38.0975088 C67.5765906,38.0975088 67.7241566,38.0844048 67.8648736,38.0575728 C68.0055906,38.0310528 68.1733925,37.9805088 68.3679679,37.9059408 L68.3679679,37.0669728 L67.5345623,37.0669728 L67.5345623,36.3044448 L69.3424019,36.3044448 L69.3424019,38.3867328 C69.0945906,38.5605168 68.7969679,38.6959248 68.4492226,38.7935808 C68.1014774,38.8912368 67.740034,38.9399088 67.3648925,38.9399088 C66.8334679,38.9399088 66.3515434,38.8303968 65.9203642,38.6110608 C65.4882509,38.3917248 65.1517132,38.0844048 64.909817,37.6891008 C64.6682321,37.2937968 64.5471283,36.8526288 64.5471283,36.3655968 C64.5471283,35.8713888 64.669166,35.4242928 64.9135528,35.0243088 C65.157317,34.6240128 65.4982132,34.3129488 65.9346849,34.0914288 C66.3711566,33.8695968 66.8574396,33.7588368 67.3938453,33.7588368" id="Fill-20" fill="#FFFFFF" mask="url(#mask-2)"></path>
                        <polygon id="Fill-21" fill="#FFFFFF" mask="url(#mask-2)" points="74.3778906 33.8237328 74.3778906 34.5865728 72.0943528 34.5865728 72.0943528 35.9138208 74.2804472 35.9138208 74.2804472 36.6766608 72.0943528 36.6766608 72.0943528 38.1118608 74.4283245 38.1118608 74.4283245 38.8747008 71.1199189 38.8747008 71.1199189 33.8237328"></polygon>
                        <polygon id="Fill-22" fill="#FFFFFF" mask="url(#mask-2)" points="76.9532915 33.8237328 78.6092066 35.8161648 80.265433 33.8237328 81.1349519 33.8237328 81.1349519 38.8747008 80.1608292 38.8747008 80.1608292 35.3278848 80.1318764 35.3278848 78.6742726 37.1069088 78.5372915 37.1069088 77.0793764 35.3278848 77.0507349 35.3278848 77.0507349 38.8747008 76.0769236 38.8747008 76.0769236 33.8237328"></polygon>
                        <polygon id="Fill-23" fill="#FFFFFF" mask="url(#mask-2)" points="86.2427604 33.8237328 86.2427604 34.5865728 83.9592226 34.5865728 83.9592226 35.9138208 86.1456283 35.9138208 86.1456283 36.6766608 83.9592226 36.6766608 83.9592226 38.1118608 86.2931943 38.1118608 86.2931943 38.8747008 82.9847887 38.8747008 82.9847887 33.8237328"></polygon>
                        <polygon id="Fill-24" fill="#FFFFFF" mask="url(#mask-2)" points="88.7962443 33.8237328 91.7908387 37.3490208 91.7908387 33.8237328 92.7431689 33.8237328 92.7431689 38.8747008 91.9063387 38.8747008 88.8936877 35.2916928 88.8936877 38.8747008 87.9413575 38.8747008 87.9413575 33.8237328"></polygon>
                        <polygon id="Fill-25" fill="#FFFFFF" mask="url(#mask-2)" points="98.7712726 33.8237328 98.7712726 34.5865728 96.9818009 34.5865728 96.9818009 38.8747008 96.0076783 38.8747008 96.0076783 34.5865728 94.2182066 34.5865728 94.2182066 33.8237328"></polygon>
                    </g>
                </g>
            </g>
        </g>
    </g>
</svg>