<?xml version="1.0" encoding="UTF-8"?>
<svg width="140px" height="140px" viewBox="0 0 140 140" version="1.1" xmlns="http://www.w3.org/2000/svg" xmlns:xlink="http://www.w3.org/1999/xlink">
    <!-- Generator: sketchtool 46.2 (44496) - http://www.bohemiancoding.com/sketch -->
    <title>49627392-7070-4991-939B-154129E5EAD2</title>
    <desc>Created with sketchtool.</desc>
    <defs>
        <polygon id="path-1" points="0 0.51686 0 36.11914 35.600818 36.11914 35.600818 0.51686 0 0.51686"></polygon>
        <polygon id="path-3" points="46.66532 38.9111204 46.66532 0.664684444 0.487792 0.664684444 0.487792 38.9111204"></polygon>
        <polygon id="path-5" points="45.66532 0.244068 45.66532 2.805148 0.493304 2.805148 0.493304 0.244068 45.66532 0.244068"></polygon>
    </defs>
    <g id="Final" stroke="none" stroke-width="1" fill="none" fill-rule="evenodd">
        <g id="Investments" transform="translate(-486.000000, -1195.000000)">
            <g id="Group" transform="translate(81.000000, 1195.000000)">
                <g id="logo-grid">
                    <g id="top">
                        <g id="jon-copy" transform="translate(326.000000, 0.000000)">
                            <g id="icon_unique" transform="translate(79.000000, 0.000000)">
                                <circle id="Oval-Copy" fill="#FF5529" cx="70" cy="70" r="70"></circle>
                                <g id="Page-1" transform="translate(27.000000, 29.000000)">
                                    <path d="M30.35628,49.6277524 L55.47,24.5123124" id="Fill-1" fill="#FFFFFF"></path>
                                    <g id="Group-23" transform="translate(0.000000, 0.100276)">
                                        <path d="M30.35628,50.8073284 C30.0312,50.8073284 29.70096,50.6852084 29.45328,50.4340884 C28.95276,49.9335684 28.95276,49.1217284 29.45328,48.6212084 L54.56356,23.5057684 C55.06408,23.0104084 55.8742,23.0052484 56.37472,23.5057684 C56.87524,24.0062884 56.87524,24.8181284 56.37472,25.3186484 L31.26272,50.4340884 C31.01332,50.6817684 30.6848,50.8073284 30.35628,50.8073284" id="Fill-2" fill="#4D4D4D"></path>
                                        <polygon id="Fill-4" fill="#FFFFFF" points="26.392196 45.5616724 34.319676 53.4925924 9.209396 78.6045924 1.280196 70.6753924"></polygon>
                                        <g id="Group-8" transform="translate(0.000000, 43.764444)">
                                            <mask id="mask-2" fill="white">
                                                <use xlink:href="#path-1"></use>
                                            </mask>
                                            <g id="Clip-7"></g>
                                            <path d="M3.090668,26.91026 L9.208708,33.03002 L32.509548,9.72918 L26.391508,3.6077 L3.090668,26.91026 Z M9.208708,36.11914 L9.208708,36.11914 C8.868148,36.11914 8.543068,35.9867 8.303988,35.7459 L0.374788,27.81326 C-0.125732,27.31618 -0.125732,26.50434 0.374788,26.00382 L25.486788,0.89182 C25.727588,0.65102 26.052668,0.51686 26.391508,0.51686 C26.732068,0.51686 27.057148,0.65102 27.297948,0.89354 L35.225428,8.82446 C35.725948,9.32154 35.725948,10.1351 35.225428,10.6339 L10.113428,35.74762 C9.874348,35.9867 9.547548,36.11914 9.208708,36.11914 L9.208708,36.11914 Z" id="Fill-6" fill="#4D4D4D" mask="url(#mask-2)"></path>
                                        </g>
                                        <path d="M68.686652,37.6319564 L39.608332,8.55535644 L44.899052,3.26807644 C44.899052,3.26807644 54.149212,9.87459644 62.078412,1.94539644 L83.225812,23.0910764 L68.686652,37.6319564 Z" id="Fill-9" fill="#FF9554"></path>
                                        <g id="Group-13" transform="translate(37.840000, -0.000000)">
                                            <mask id="mask-4" fill="white">
                                                <use xlink:href="#path-3"></use>
                                            </mask>
                                            <g id="Clip-12"></g>
                                            <path d="M3.578632,8.55484044 L30.847512,35.8220004 L43.575512,23.0905604 L24.204872,3.72336044 C21.585312,5.98516044 18.597672,7.12896044 15.315912,7.12896044 C11.705632,7.12896044 8.699072,5.71856044 7.245672,4.89124044 L3.578632,8.55484044 Z M30.847512,38.9111204 C30.506952,38.9111204 30.181872,38.7786804 29.942792,38.5396004 L0.862752,9.46128044 C0.621952,9.22220044 0.487792,8.89540044 0.487792,8.55484044 C0.487792,8.21600044 0.621952,7.88748044 0.862752,7.65012044 L6.151752,2.36284044 C6.592072,1.92596044 7.290392,1.86232044 7.797792,2.22524044 C7.833912,2.24932044 11.160392,4.56788044 15.315912,4.56788044 C18.294952,4.56788044 20.991912,3.38108044 23.334552,1.03844044 C23.833352,0.539640444 24.645192,0.539640444 25.143992,1.03844044 L46.291392,22.1858404 C46.790192,22.6863604 46.790192,23.4982004 46.291392,23.9987204 L31.753952,38.5396004 C31.511432,38.7786804 31.188072,38.9111204 30.847512,38.9111204 L30.847512,38.9111204 Z" id="Fill-11" fill="#4D4D4D" mask="url(#mask-4)"></path>
                                        </g>
                                        <path d="M40.615736,77.9680204 L83.225296,77.9680204" id="Fill-14" fill="#FFFFFF"></path>
                                        <g id="Group-18" transform="translate(38.840000, 76.444444)">
                                            <mask id="mask-6" fill="white">
                                                <use xlink:href="#path-5"></use>
                                            </mask>
                                            <g id="Clip-17"></g>
                                            <path d="M44.385984,2.805148 L1.776424,2.805148 C1.066064,2.805148 0.493304,2.230668 0.493304,1.523748 C0.493304,0.818548 1.066064,0.244068 1.776424,0.244068 L44.385984,0.244068 C45.092904,0.244068 45.665664,0.818548 45.665664,1.523748 C45.665664,2.230668 45.092904,2.805148 44.385984,2.805148" id="Fill-16" fill="#4D4D4D" mask="url(#mask-6)"></path>
                                        </g>
                                        <path d="M45.530464,71.8219444 L78.308504,71.8219444" id="Fill-19" fill="#FFFFFF"></path>
                                        <path d="M78.307988,73.1035164 L45.529948,73.1035164 C44.821308,73.1035164 44.250268,72.5290364 44.250268,71.8221164 C44.250268,71.1169164 44.821308,70.5424364 45.529948,70.5424364 L78.307988,70.5424364 C79.014908,70.5424364 79.587668,71.1169164 79.587668,71.8221164 C79.587668,72.5290364 79.014908,73.1035164 78.307988,73.1035164" id="Fill-21" fill="#4D4D4D"></path>
                                    </g>
                                </g>
                            </g>
                        </g>
                    </g>
                </g>
            </g>
        </g>
    </g>
</svg>