<svg xmlns="http://www.w3.org/2000/svg" xmlns:xlink="http://www.w3.org/1999/xlink" width="140" height="140" viewBox="0 0 140 140">
    <defs>
        <path id="a" d="M31.353.725H0v68.41h62.705V.725z"/>
    </defs>
    <g fill="none" fill-rule="evenodd">
        <path fill="#FFF" d="M-812-468H628v1739H-812z"/>
        <path fill="#FFF" d="M-812-468H628V42H-812z"/>
        <path fill="#4D4D4D" d="M58.194 99.634h22.32v-2.682h-22.32zM58.194 104.598h22.32v-2.682h-22.32zM58.194 109.555h22.32v-2.682h-22.32zM63.558 114.515h11.593v-2.684H63.558z"/>
        <path fill="#FFF" d="M99.365 57.306c0-16.57-13.44-30.003-30.01-30.003-16.575 0-30.012 13.434-30.012 30.003 0 .48.016.957.047 1.43-.031.472-.047.953-.047 1.429 0 11.892 12.63 23.17 12.63 23.17 2.375 2.12 4.316 6.452 4.316 9.643v.052H82.42v-.052c0-3.19 1.947-7.524 4.319-9.643 0 0 12.626-11.278 12.626-23.17 0-.476-.013-.957-.035-1.43.022-.472.035-.95.035-1.429"/>
        <g transform="translate(38 25.236)">
            <mask id="b" fill="#fff">
                <use xlink:href="#a"/>
            </mask>
            <path fill="#4D4D4D" d="M19.549 66.453H43.16c.41-3.347 2.325-7.245 4.686-9.352.121-.11 12.177-11.027 12.177-22.172 0-.454-.014-.919-.032-1.366.018-.577.032-1.03.032-1.492 0-15.807-12.863-28.664-28.669-28.664-15.809 0-28.669 12.857-28.669 28.664 0 .45.016.901.043 1.344a33.933 33.933 0 0 0-.043 1.514c0 11.141 12.058 22.062 12.18 22.172 2.362 2.105 4.27 5.998 4.684 9.352zm24.87 2.682H16.949v-1.34c0-2.87-1.774-6.826-3.87-8.692C12.544 58.623 0 47.281 0 34.93c0-.504.018-1.014.05-1.514-.032-.335-.05-.838-.05-1.344C0 14.786 14.066.725 31.354.725c17.287 0 31.351 14.06 31.351 31.346 0 .495-.012.996-.034 1.489.022.369.034.872.034 1.37 0 12.351-12.54 23.694-13.073 24.17-2.1 1.876-3.871 5.832-3.871 8.642v1.341l-1.341.052z" mask="url(#b)"/>
        </g>
        <path fill="#FF5529" d="M89.427 53.483a20.612 20.612 0 0 0-5.343-9.646c-.092-.087-.178-.179-.266-.267a20.568 20.568 0 0 0-9.641-5.337 20.364 20.364 0 0 0-4.825-.595c-1.666 0-3.268.218-4.818.595a20.552 20.552 0 0 0-9.915 5.604 20.58 20.58 0 0 0-5.343 9.646 20.498 20.498 0 0 0-.589 4.816c0 1.67.216 3.277.59 4.827a20.56 20.56 0 0 0 5.342 9.641c.08.092.176.18.266.272a20.64 20.64 0 0 0 9.649 5.333c1.55.374 3.152.599 4.818.599 1.669 0 3.273-.225 4.825-.599a20.624 20.624 0 0 0 9.64-5.333c.089-.095.18-.184.273-.272a20.629 20.629 0 0 0 5.337-9.641c.371-1.55.59-3.158.59-4.827 0-1.658-.219-3.271-.59-4.816"/>
        <path fill="#4D4D4D" d="M55.73 71.986c2.596 2.541 5.716 4.27 9.117 5.083 3.147.757 5.867.75 9.019 0a19.324 19.324 0 0 0 9.012-4.988c.058-.066.171-.176.285-.284a19.249 19.249 0 0 0 4.962-8.982c.37-1.555.55-3.031.55-4.517 0-1.46-.186-2.974-.55-4.502a19.25 19.25 0 0 0-4.998-9.016l-.177-.178c-2.566-2.525-5.683-4.25-9.084-5.067-3.095-.75-5.93-.75-9.016 0a19.228 19.228 0 0 0-9.024 4.993l-.238.238a19.314 19.314 0 0 0-5.007 9.03 19.2 19.2 0 0 0-.55 4.502c0 1.48.184 2.996.55 4.514a19.238 19.238 0 0 0 4.992 9.012l-.785 1.112.942-.95zm13.623 8.329c-1.675 0-3.354-.208-5.133-.64a21.957 21.957 0 0 1-10.272-5.68l-.325-.326c-2.747-2.784-4.713-6.337-5.652-10.227a22.041 22.041 0 0 1-.624-5.144c0-1.685.21-3.413.624-5.127a21.95 21.95 0 0 1 5.692-10.274l.286-.289a21.952 21.952 0 0 1 10.274-5.68c3.464-.842 6.788-.842 10.27.003a21.91 21.91 0 0 1 10.265 5.681l.287.285A21.97 21.97 0 0 1 90.73 53.17a21.98 21.98 0 0 1 .627 5.127c0 1.698-.207 3.38-.627 5.14a21.982 21.982 0 0 1-5.683 10.27l-.24.235a22.01 22.01 0 0 1-10.318 5.732c-1.781.432-3.465.64-5.137.64z"/>
        <path fill="#4D4D4D" d="M74.728 65.625a4.224 4.224 0 0 1-.961 1.51c-.43.436-.954.788-1.572 1.07-.622.271-1.337.451-2.137.525l.627-9.214c.609.199 1.173.413 1.705.646a6.32 6.32 0 0 1 1.386.83c.396.327.71.707.934 1.154.228.44.34.971.34 1.584 0 .698-.106 1.329-.322 1.895zm-5.855-9.942a12.416 12.416 0 0 1-1.611-.662 5.577 5.577 0 0 1-1.289-.872 3.592 3.592 0 0 1-.874-1.156c-.207-.432-.313-.953-.313-1.544 0-.51.091-.986.277-1.451.188-.465.465-.88.838-1.25.38-.372.858-.679 1.446-.922.582-.247 1.28-.406 2.082-.483l-.556 8.34zm8.67 4.707a6.073 6.073 0 0 0-1.676-1.901 9.227 9.227 0 0 0-2.33-1.246c-.864-.32-1.742-.62-2.63-.888l.61-8.95a6.134 6.134 0 0 1 1.612.432c.468.2.885.403 1.238.609.36.204.662.384.918.539.25.155.465.225.632.225.33 0 .608-.184.856-.553l.797-1.222a11.258 11.258 0 0 0-2.52-1.83c-.935-.508-2.05-.845-3.35-1l.264-3.664H70.74a.827.827 0 0 0-.645.28 1.115 1.115 0 0 0-.278.632l-.184 2.7c-1.283 0-2.419.207-3.405.636-.99.425-1.816.975-2.487 1.644a6.876 6.876 0 0 0-1.537 2.289 6.908 6.908 0 0 0-.528 2.644c0 1.2.205 2.199.603 2.996a5.9 5.9 0 0 0 1.592 1.984c.66.528 1.406.955 2.237 1.278.834.328 1.68.624 2.545.883l-.683 9.823c-.844-.103-1.561-.292-2.156-.571a11.323 11.323 0 0 1-1.548-.883 27.905 27.905 0 0 1-1.089-.806c-.294-.233-.559-.35-.798-.35-.168 0-.334.044-.498.132a.932.932 0 0 0-.366.33l-.984 1.517c.883.927 1.945 1.687 3.172 2.286 1.23.598 2.592.96 4.08 1.097l-.275 4.182h1.22a.834.834 0 0 0 .631-.263 1.08 1.08 0 0 0 .296-.624l.22-3.316c1.317 0 2.49-.23 3.52-.69a8.169 8.169 0 0 0 2.611-1.808 7.738 7.738 0 0 0 1.623-2.581c.37-.975.55-2.028.55-3.137 0-1.144-.213-2.089-.635-2.855z"/>
    </g>
</svg>
