<?xml version="1.0" encoding="UTF-8"?>
<svg width="140px" height="140px" viewBox="0 0 140 140" version="1.1" xmlns="http://www.w3.org/2000/svg" xmlns:xlink="http://www.w3.org/1999/xlink">
    <!-- Generator: sketchtool 46.2 (44496) - http://www.bohemiancoding.com/sketch -->
    <title>2B776486-D447-4916-B122-47B82B1F66C1</title>
    <desc>Created with sketchtool.</desc>
    <defs></defs>
    <g id="Final" stroke="none" stroke-width="1" fill="none" fill-rule="evenodd">
        <g id="Investments" transform="translate(-160.000000, -1195.000000)">
            <g id="Group" transform="translate(81.000000, 1195.000000)">
                <g id="logo-grid">
                    <g id="top">
                        <g id="jon">
                            <g id="icon_focused-" transform="translate(79.000000, 0.000000)">
                                <circle id="Oval" fill="#FF5529" cx="70" cy="70" r="70"></circle>
                                <g id="01" transform="translate(27.000000, 29.000000)">
                                    <polygon id="Fill-1" fill="#4D4D4D" points="0 17.23655 9.73770833 17.23655 9.73770833 14.57055 0 14.57055"></polygon>
                                    <polygon id="Fill-2" fill="#4D4D4D" points="0 33.463675 9.73770833 33.463675 9.73770833 30.797675 0 30.797675"></polygon>
                                    <polygon id="Fill-3" fill="#4D4D4D" points="0 49.6908 9.73770833 49.6908 9.73770833 47.0212167 0 47.0212167"></polygon>
                                    <polygon id="Fill-4" fill="#4D4D4D" points="0 65.917925 9.73770833 65.917925 9.73770833 63.2483417 0 63.2483417"></polygon>
                                    <polygon id="Fill-5" fill="#4D4D4D" points="3.5362125 -0.000358333333 3.5362125 81.8250583 85.3598375 81.8250583 85.3598375 79.1572667 6.20579583 79.1572667 6.20579583 -0.000358333333"></polygon>
                                    <polygon id="Fill-6" fill="#FFFFFF" points="15.9816667 71.86805 29.4406667 71.86805 29.4406667 20.2752167 15.9816667 20.2752167"></polygon>
                                    <path d="M17.3164583,70.53505 L28.105875,70.53505 L28.105875,21.6082167 L17.3164583,21.6082167 L17.3164583,70.53505 Z M14.6486667,73.20105 L30.7754583,73.20105 L30.7754583,18.9422167 L14.6486667,18.9422167 L14.6486667,73.20105 Z" id="Fill-7" fill="#4D4D4D"></path>
                                    <polygon id="Fill-8" fill="#5FD4AF" points="39.5349167 71.86805 52.992125 71.86805 52.992125 29.2890917 39.5349167 29.2890917"></polygon>
                                    <path d="M40.8697083,70.53505 L51.6573333,70.53505 L51.6573333,30.625675 L40.8697083,30.625675 L40.8697083,70.53505 Z M38.2019167,73.20105 L54.325125,73.20105 L54.325125,27.9560917 L38.2019167,27.9560917 L38.2019167,73.20105 Z" id="Fill-9" fill="#4D4D4D"></path>
                                    <polygon id="Fill-10" fill="#FFFFFF" points="63.0845833 71.86805 76.5435833 71.86805 76.5435833 14.371675 63.0845833 14.371675"></polygon>
                                    <path d="M64.4175833,70.53505 L75.2087917,70.53505 L75.2087917,15.704675 L64.4175833,15.704675 L64.4175833,70.53505 Z M61.7515833,73.20105 L77.8765833,73.20105 L77.8765833,13.0368833 L61.7515833,13.0368833 L61.7515833,73.20105 Z" id="Fill-11" fill="#4D4D4D"></path>
                                </g>
                            </g>
                        </g>
                    </g>
                </g>
            </g>
        </g>
    </g>
</svg>