<svg xmlns="http://www.w3.org/2000/svg" width="140" height="140" viewBox="0 0 140 140">
    <g fill="none" fill-rule="evenodd">
        <path fill="#FFF" d="M-160-468h1440v1739H-160z"/>
        <path fill="#FFF" d="M-160-468h1440V42H-160z"/>
        <path d="M23.047 106.18h88.29V29h-88.29v77.179L23.046 29h88.29v77.178h-88.29z"/>
        <path fill="#4D4D4D" d="M71.154 75.61h27.901v-8.148H71.154v8.149zM102.1 30.525c0-.843-.685-1.523-1.523-1.523H66.995c-.841 0-1.523.68-1.523 1.523v11.194c0 .109.04.202.065.305-.024.102-.065.195-.065.306v11.193c0 .11.04.202.065.306-.024.1-.065.197-.065.306v22.792h.63c-.01.069-.037.134-.037.206a1.52 1.52 0 0 0 1.521 1.524h32.99c.839 0 1.524-.68 1.524-1.524V65.937c0-.106-.04-.2-.065-.304.024-.102.065-.196.065-.304V54.134c0-.11-.04-.206-.065-.306.024-.104.065-.196.065-.306V42.33c0-.111-.04-.204-.065-.306.024-.103.065-.196.065-.305V30.524z"/>
        <path fill="#FF5529" d="M71.154 75.61h27.901v-8.148H71.154zM68.517 52.613h30.538V43.85H68.517z"/>
        <path fill="#FFF" d="M68.517 40.808h30.538v-8.762H68.517z"/>
        <path fill="#FF5529" d="M68.517 64.417h30.538v-8.762H68.517z"/>
        <path fill="#4D4D4D" d="M111.253 87.662c-.883-2.615-5.553-15.6-11.7-14.494-1.675.306-3.115 1.818-5.103 3.908-5.393 5.671-13.354 14.034-30.289 3.108l11.338-.004c.276.023 2.617.128 4.142-1.297.798-.75 1.225-1.775 1.225-2.967V68.42c0-.098-.011-.198-.032-.297-.339-1.723-1.872-4.974-5.231-4.974h-36.53v-2.468c0-.836-.679-1.523-1.524-1.523H24.57c-.843 0-1.523.687-1.523 1.523v43.963c0 .84.68 1.52 1.523 1.52h12.98c.845 0 1.523-.68 1.523-1.52v-6.041c5.844 1.78 25.38 7.561 33.204 7.561h.006c.092.004.389.015.867.015 4.409 0 24.023-.945 37.82-17.04.348-.408.463-.971.284-1.477"/>
        <path fill="#5FD4AF" d="M26.09 103.123h9.938V62.205H26.09z"/>
        <path fill="#FFF" d="M72.346 103.123c-7.818 0-29.05-6.409-33.274-7.704V66.194h36.53c1.485 0 2.085 1.909 2.217 2.405v7.317c0 .443-.14.626-.256.74-.443.42-1.447.512-1.96.481H59.351a1.52 1.52 0 0 0-1.439 1.041c-.209.62 0 1.3.523 1.698 8.43 6.401 15.2 8.647 20.665 8.647 8.66 0 14.038-5.65 17.554-9.347 1.286-1.351 2.746-2.888 3.445-3.014 2.364-.448 6.026 6.251 7.98 11.651-14.298 16.01-35.463 15.31-35.734 15.31"/>
    </g>
</svg>
