<?xml version="1.0" encoding="UTF-8"?>
<svg width="99px" height="38px" viewBox="0 0 99 38" version="1.1" xmlns="http://www.w3.org/2000/svg" xmlns:xlink="http://www.w3.org/1999/xlink">
    <!-- Generator: sketchtool 46.2 (44496) - http://www.bohemiancoding.com/sketch -->
    <title>768C5269-5DDE-494F-88C3-BCC5A1CB3F19</title>
    <desc>Created with sketchtool.</desc>
    <defs>
        <polygon id="path-1" points="0 38 98.738097 38 98.738097 0.186068966 0 0.186068966"></polygon>
    </defs>
    <g id="Final" stroke="none" stroke-width="1" fill="none" fill-rule="evenodd">
        <g id="Investments" transform="translate(-81.000000, -36.000000)">
            <g id="Hero" transform="translate(1.000000, 0.000000)">
                <g id="tab">
                    <g id="logo" transform="translate(80.000000, 36.000000)">
                        <g id="Page-1">
                            <g>
                                <g id="Group-5">
                                    <path d="M45.6899617,18.7355761 C47.5503644,15.2461196 49.1602772,13.4522174 50.4971094,12.314913 C52.2113376,11.0004565 53.7631128,10.241413 56.2949215,10.2861739 C59.1057906,10.3337717 61.5734819,11.6958261 63.0049953,13.7529348 L66.8297839,13.7529348 C65.1158879,9.83163043 61.0479181,7.07158696 56.2949215,7.07158696 C53.0993477,7.07158696 49.9419785,8.20826087 47.8709517,10.2168261 C45.6580691,12.2692065 44.4109349,14.7704565 43.1279215,16.79825 C40.8120523,20.4585543 39.8247101,21.7641848 38.9798879,22.5840652 C38.3324013,23.2122935 37.852351,23.5549348 37.0380926,24.0173587 C36.1341362,24.5305326 34.6371765,25.2504891 32.5229617,25.2504891 C28.0945389,25.2504891 24.5019685,21.8436196 24.5019685,17.6398804 C24.5019685,13.4380326 28.0945389,10.0302174 32.5229617,10.0302174 C36.0191899,10.0302174 39.0742369,12.4432065 40.1708779,15.4059348 C40.8824819,15.5818261 42.4163174,15.9566196 42.4163174,15.9566196 L43.2863879,14.1759565 C41.6701631,10.0655217 37.4184785,6.81752174 32.5229617,6.81752174 C26.2238376,6.81752174 21.1137101,11.6633587 21.1137101,17.6398804 C21.1137101,23.6164022 26.2238376,28.4540435 32.5229617,28.4612935 C34.6109315,28.4638152 36.6065456,27.8803478 38.2882168,26.938163 C39.7948107,26.0943261 40.3303409,25.5798913 40.9392906,25.0292065 C42.3146597,23.7850435 44.1401799,21.5772609 45.6879685,18.7355761 L45.6899617,18.7355761 Z M9.66891141,6.84620652 C7.06866644,6.84620652 4.97372013,7.80667391 3.28972349,9.78497826 L3.28972349,7.28940217 L0.000132885906,7.28940217 L0.000132885906,28.0426848 L3.44420336,28.0426848 L3.44420336,16.3919348 C3.44420336,14.20275 3.9873745,12.7016848 5.14813289,11.6671413 C6.39294161,10.5648261 7.87661275,10.0037391 9.55462953,10.0037391 C13.3937034,10.0037391 15.9736832,12.6436848 15.9736832,16.5766522 L15.9736832,28.0426848 L19.4177537,28.0426848 L19.4177537,16.316913 C19.4177537,13.4553696 18.3752638,10.9957283 16.4829685,9.39316304 C14.5823678,7.75056522 12.1648409,6.84620652 9.66891141,6.84620652 L9.66891141,6.84620652 Z" id="Fill-1" fill="#FF5529"></path>
                                    <path d="M94.6635674,21.0818337 C93.5868594,23.5165728 90.4314836,25.3520837 87.3259399,25.3520837 C83.4489936,25.3520837 79.7743661,22.2534967 79.5876614,18.9002141 L98.8773795,18.9002141 L98.8670809,18.6243989 C98.7547923,15.8794859 98.3302218,13.004388 95.9884399,10.5447467 C93.6808762,8.11568152 90.7401111,6.83369239 87.4804198,6.83369239 C81.203554,6.83369239 76.0974131,11.7107359 76.0974131,17.7074315 C76.0974131,23.7640185 81.1317956,28.5115076 87.5584903,28.5115076 C92.1812587,28.5115076 96.5535372,25.5368011 98.1877017,21.2760076 L98.3242419,20.9163446 L94.7376513,20.9163446 L94.6635674,21.0818337 Z M70.2497688,28.0304859 L73.6938393,28.0304859 L73.6938393,0.179138043 L70.2497688,0.179138043 L70.2497688,28.0304859 Z M67.6256044,17.3764533 L66.9419064,17.3764533 L64.2416648,17.3764533 L56.5615238,17.3764533 L56.5615238,20.6711054 L63.7041413,20.6711054 C62.5294299,23.4919859 59.6365037,25.4948772 56.2465842,25.4948772 C52.7523493,25.4948772 49.6949768,23.0790511 48.5986681,20.1156924 C47.8867319,19.9404315 46.3532285,19.5659533 46.3532285,19.5659533 L45.4811648,21.3463011 C47.0970574,25.4567359 51.3510674,28.7056815 56.2465842,28.7056815 C62.5457084,28.7056815 67.6515171,23.8588989 67.6515171,17.8823772 C67.6515171,17.7131054 67.6335775,17.5476163 67.6256044,17.3764533 L67.6256044,17.3764533 Z M95.3170339,15.8889424 L79.6119131,15.8889424 C80.518195,12.3994859 83.7214097,9.991225 87.5202856,9.991225 C91.1371077,9.991225 94.4948023,12.5580402 95.3170339,15.8889424 L95.3170339,15.8889424 Z" id="Fill-3" fill="#77787A"></path>
                                </g>
                                <g id="logo">
                                    <path d="M2.9080505,32.8865759 C3.19412408,32.8865759 3.47423779,32.9186793 3.74839164,32.9828862 C4.02254548,33.0470931 4.31822107,33.1565069 4.6357495,33.3111276 L4.6357495,34.2175586 C4.32550535,34.0413172 4.03876957,33.9142138 3.77554214,33.8355931 C3.51231472,33.7573 3.23749866,33.7179897 2.95142508,33.7179897 C2.5931709,33.7179897 2.26968261,33.7910414 1.9812913,33.9374724 C1.6925689,34.0839034 1.46841171,34.2902828 1.30848863,34.5566103 C1.14856555,34.8229379 1.06876957,35.1190759 1.06876957,35.4450241 C1.06876957,35.7781793 1.14823445,36.0766103 1.30683311,36.3406448 C1.46543177,36.6046793 1.68925786,36.8087655 1.97764916,36.9525759 C2.26637157,37.0967138 2.59085318,37.1684552 2.95142508,37.1684552 C3.22789666,37.1684552 3.49178629,37.1291448 3.74309398,37.0508517 C3.99440167,36.972231 4.31093679,36.8307138 4.69336154,36.6263 L4.69336154,37.5324034 C4.36656221,37.7014379 4.06592007,37.8213345 3.79176622,37.8927483 C3.51761237,37.9641621 3.19776622,37.999869 2.83222776,37.999869 C2.30113746,37.999869 1.82600368,37.895369 1.40781973,37.6860414 C0.989635786,37.4767138 0.660518729,37.1750069 0.421461873,36.7815759 C0.182073913,36.3878172 0.0625454849,35.9567138 0.0625454849,35.4879379 C0.0625454849,34.9860759 0.185716054,34.5349897 0.432057191,34.1356621 C0.678729431,33.7356793 1.0177796,33.4277483 1.44920769,33.2112138 C1.88063579,32.9950069 2.36702709,32.8865759 2.9080505,32.8865759 Z" id="Fill-6" fill="#33353D"></path>
                                    <path d="M7.64289933,35.9909793 L9.26961171,35.9909793 L8.41834415,34.0179276 L7.64289933,35.9909793 Z M8.91235084,32.9509793 L11.1376987,37.9358586 L10.1099528,37.9358586 L9.58680903,36.7224793 L7.34689264,36.7224793 L6.86017023,37.9358586 L5.83937759,37.9358586 L7.91705318,32.9509793 L8.91235084,32.9509793 Z" id="Fill-8" fill="#33353D"></path>
                                    <path d="M14.1736545,35.0918534 C14.4335709,35.0918534 14.6358753,35.0328879 14.7812298,34.9149569 C14.9269154,34.797681 14.9997582,34.6230776 14.9997582,34.3924569 C14.9997582,33.933181 14.7014338,33.7038707 14.1051161,33.7038707 L13.4415843,33.7038707 L13.4415843,35.0918534 L14.1736545,35.0918534 Z M14.4153602,32.95075 C14.8865207,32.95075 15.2696077,33.0857155 15.56429,33.3559741 C15.8586411,33.6259052 16.0059823,33.9738017 16.0059823,34.3996638 C16.0059823,34.8301121 15.8566545,35.1786638 15.5586612,35.4449914 C15.2606679,35.7116466 14.8673167,35.8446466 14.3792699,35.8446466 L13.4415843,35.8446466 L13.4415843,37.9356293 L12.4678084,37.9356293 L12.4678084,32.95075 L14.4153602,32.95075 Z" id="Fill-10" fill="#33353D"></path>
                                    <mask id="mask-2" fill="white">
                                        <use xlink:href="#path-1"></use>
                                    </mask>
                                    <g id="Clip-13"></g>
                                    <polygon id="Fill-12" fill="#33353D" mask="url(#mask-2)" points="17.5418729 37.9357931 18.5156488 37.9357931 18.5156488 32.9509138 17.5418729 32.9509138"></polygon>
                                    <polygon id="Fill-14" fill="#33353D" mask="url(#mask-2)" points="24.5665355 32.950881 24.5665355 33.7036741 22.7775823 33.7036741 22.7775823 37.9357603 21.8038064 37.9357603 21.8038064 33.7036741 20.0148532 33.7036741 20.0148532 32.950881"></polygon>
                                    <path d="M26.7369863,35.9909793 L28.3636987,35.9909793 L27.5124311,34.0179276 L26.7369863,35.9909793 Z M28.0064378,32.9509793 L30.2317856,37.9358586 L29.2040398,37.9358586 L28.680896,36.7224793 L26.4413107,36.7224793 L25.9545883,37.9358586 L24.9337957,37.9358586 L27.0111401,32.9509793 L28.0064378,32.9509793 Z" id="Fill-15" fill="#33353D" mask="url(#mask-2)"></path>
                                    <polygon id="Fill-16" fill="#33353D" mask="url(#mask-2)" points="32.5356712 32.950881 32.5356712 37.1826397 34.9808719 37.1826397 34.9808719 37.9357603 31.5618953 37.9357603 31.5618953 32.950881"></polygon>
                                    <polygon id="Fill-17" fill="#33353D" mask="url(#mask-2)" points="40.054208 32.950881 41.7097264 34.9170534 43.3649137 32.950881 44.234392 32.950881 44.234392 37.9357603 43.2606161 37.9357603 43.2606161 34.4351741 43.2314789 34.4351741 41.7746227 36.1907086 41.6375458 36.1907086 40.1803585 34.4351741 40.1515525 34.4351741 40.1515525 37.9357603 39.1777766 37.9357603 39.1777766 32.950881"></polygon>
                                    <path d="M47.3677585,35.9909793 L48.9941398,35.9909793 L48.1428722,34.0179276 L47.3677585,35.9909793 Z M48.63721,32.9509793 L50.8625579,37.9358586 L49.8344809,37.9358586 L49.3116682,36.7224793 L47.0717518,36.7224793 L46.5850294,37.9358586 L45.5642368,37.9358586 L47.6419124,32.9509793 L48.63721,32.9509793 Z" id="Fill-18" fill="#33353D" mask="url(#mask-2)"></path>
                                    <polygon id="Fill-19" fill="#33353D" mask="url(#mask-2)" points="53.0474448 32.950881 56.0409532 36.4298466 56.0409532 32.950881 56.9932074 32.950881 56.9932074 37.9357603 56.1565084 37.9357603 53.1447893 34.3994672 53.1447893 37.9357603 52.1925351 37.9357603 52.1925351 32.950881"></polygon>
                                    <path d="M60.1228324,35.9909793 L61.7495448,35.9909793 L60.8982773,34.0179276 L60.1228324,35.9909793 Z M61.3922839,32.9509793 L63.6176318,37.9358586 L62.589886,37.9358586 L62.0670732,36.7224793 L59.8271569,36.7224793 L59.3401033,37.9358586 L58.3196418,37.9358586 L60.3969863,32.9509793 L61.3922839,32.9509793 Z" id="Fill-20" fill="#33353D" mask="url(#mask-2)"></path>
                                    <path d="M67.3715528,32.8865759 C67.99171,32.8865759 68.6072318,33.0231793 69.2181181,33.2967138 L69.2181181,34.1782483 C68.6072318,33.8713 68.0062786,33.7179897 67.4145963,33.7179897 C67.0467401,33.7179897 66.7199408,33.7907138 66.4335361,33.9358345 C66.1474625,34.0809552 65.9256231,34.2896276 65.7683488,34.5618517 C65.6107435,34.8344034 65.5319408,35.1380759 65.5319408,35.4735241 C65.5319408,35.9825931 65.7034525,36.3924034 66.0461448,36.7029552 C66.388506,37.0135069 66.8401314,37.1684552 67.4003589,37.1684552 C67.553991,37.1684552 67.7016632,37.1553517 67.8420512,37.1291448 C67.9827702,37.1032655 68.1506398,37.0531448 68.3449977,36.9794379 L68.3449977,36.1516276 L67.5119408,36.1516276 L67.5119408,35.3988345 L69.3191047,35.3988345 L69.3191047,37.4537828 C69.0714391,37.6254379 68.7737769,37.7590931 68.4264492,37.8554034 C68.0787903,37.9517138 67.7175562,37.999869 67.3427468,37.999869 C66.8109943,37.999869 66.3295696,37.8917655 65.8981415,37.675231 C65.4663823,37.4590241 65.1296498,37.1553517 64.8882753,36.7651966 C64.6465696,36.3750414 64.5257167,35.9400069 64.5257167,35.4594379 C64.5257167,34.9716621 64.6475629,34.5304034 64.8919174,34.1356621 C65.1359408,33.7405931 65.4763154,33.4336448 65.9123789,33.2148172 C66.3491047,32.9959897 66.8351649,32.8865759 67.3715528,32.8865759" id="Fill-21" fill="#33353D" mask="url(#mask-2)"></path>
                                    <polygon id="Fill-22" fill="#33353D" mask="url(#mask-2)" points="74.3530395 32.950881 74.3530395 33.7036741 72.0700796 33.7036741 72.0700796 35.0133638 74.255695 35.0133638 74.255695 35.7661569 72.0700796 35.7661569 72.0700796 37.1826397 74.4033672 37.1826397 74.4033672 37.9357603 71.0963037 37.9357603 71.0963037 32.950881"></polygon>
                                    <polygon id="Fill-23" fill="#33353D" mask="url(#mask-2)" points="76.927503 32.950881 78.5830214 34.9170534 80.2385398 32.950881 81.107687 32.950881 81.107687 37.9357603 80.1342421 37.9357603 80.1342421 34.4351741 80.105105 34.4351741 78.6479177 36.1907086 78.5108408 36.1907086 77.0539846 34.4351741 77.0251786 34.4351741 77.0251786 37.9357603 76.0514027 37.9357603 76.0514027 32.950881"></polygon>
                                    <polygon id="Fill-24" fill="#33353D" mask="url(#mask-2)" points="86.2139017 32.950881 86.2139017 33.7036741 83.9309418 33.7036741 83.9309418 35.0133638 86.1165572 35.0133638 86.1165572 35.7661569 83.9309418 35.7661569 83.9309418 37.1826397 86.2642294 37.1826397 86.2642294 37.9357603 82.9571659 37.9357603 82.9571659 32.950881"></polygon>
                                    <polygon id="Fill-25" fill="#33353D" mask="url(#mask-2)" points="88.766711 32.950881 91.7602194 36.4298466 91.7602194 32.950881 92.7121425 32.950881 92.7121425 37.9357603 91.8757746 37.9357603 88.8640555 34.3994672 88.8640555 37.9357603 87.9118013 37.9357603 87.9118013 32.950881"></polygon>
                                    <polygon id="Fill-26" fill="#33353D" mask="url(#mask-2)" points="98.7382957 32.950881 98.7382957 33.7036741 96.9496736 33.7036741 96.9496736 37.9357603 95.9755666 37.9357603 95.9755666 33.7036741 94.1866134 33.7036741 94.1866134 32.950881"></polygon>
                                </g>
                            </g>
                        </g>
                    </g>
                </g>
            </g>
        </g>
    </g>
</svg>