<svg xmlns="http://www.w3.org/2000/svg" xmlns:xlink="http://www.w3.org/1999/xlink" width="140" height="140" viewBox="0 0 140 140">
    <defs>
        <path id="a" d="M39.226 72.8H0V.793h39.226z"/>
        <path id="c" d="M.606 72.8h39.229V.793H.605z"/>
        <path id="e" d="M25 112.168h88.436V28H25z"/>
    </defs>
    <g fill="none" fill-rule="evenodd">
        <path fill="#FFF" d="M35.872 70.43l8.808 17.206-9.438-9.49a4.776 4.776 0 0 1 0-6.753 4.78 4.78 0 0 1 6.748 0l19.683 19.7a4.737 4.737 0 0 1 1.214 3.18v16.555l-15.749-.035v-8.649c0-1.317-.585-2.5-1.445-3.402L27.74 81.522c-1.001-1.066-1.4-2.06-1.4-3.375V46.27a4.776 4.776 0 0 1 9.55 0l-.018 24.16z"/>
        <g transform="translate(25 39.368)">
            <mask id="b" fill="#fff">
                <use xlink:href="#a"/>
            </mask>
            <path fill="#4D4D4D" d="M23.48 70.086l13.067.032V54.905c0-.85-.31-1.662-.873-2.288l-19.63-19.645a3.443 3.443 0 0 0-4.853.003 3.404 3.404 0 0 0-1.007 2.425c0 .922.359 1.784 1.007 2.434l9.439 9.491c.52.524.518 1.372-.006 1.895a1.345 1.345 0 0 1-1.897-.007l-9.434-9.488A6.082 6.082 0 0 1 7.504 35.4c0-1.63.637-3.166 1.793-4.324.077-.077.157-.147.236-.221L9.55 6.902c0-1.89-1.541-3.43-3.431-3.43a3.443 3.443 0 0 0-3.442 3.43V38.78c0 .988.283 1.652 1.039 2.462l17.905 17.167c1.215 1.276 1.857 2.811 1.857 4.368v7.31zM37.885 72.8h-.003l-15.747-.036c-.74 0-1.337-.6-1.337-1.339v-8.649c0-1.11-.585-1.96-1.078-2.477L1.813 43.124C.543 41.772 0 40.449 0 38.779V6.902C0 3.535 2.745.793 6.12.793c3.37 0 6.11 2.742 6.11 6.11l-.017 22.557a6.105 6.105 0 0 1 5.724 1.616L37.62 50.777c1.053 1.172 1.606 2.621 1.606 4.128V71.46c0 .355-.14.695-.395.945-.248.254-.59.394-.945.394z" mask="url(#b)"/>
        </g>
        <path fill="#FFF" d="M102.562 70.43l-.02-24.16a4.773 4.773 0 0 1 4.774-4.77c2.64 0 4.78 2.137 4.78 4.77v31.877c0 1.316-.397 2.31-1.402 3.375l-17.953 17.22c-.862.902-1.447 2.085-1.447 3.402v8.65l-15.748.034V94.273a4.74 4.74 0 0 1 1.216-3.18l19.683-19.7a4.773 4.773 0 1 1 6.746 6.754l-9.438 9.49"/>
        <g transform="translate(73.6 39.368)">
            <mask id="d" fill="#fff">
                <use xlink:href="#c"/>
            </mask>
            <path fill="#4D4D4D" d="M26.218 31.973c-.878 0-1.76.337-2.428 1.003L4.11 52.669c-.513.576-.822 1.39-.822 2.236v15.212l13.066-.03v-7.31c0-1.558.644-3.093 1.814-4.328l17.997-17.262c.709-.756.992-1.42.992-2.408V6.903a3.44 3.44 0 0 0-3.442-3.431 3.435 3.435 0 0 0-3.433 3.43l.02 23.953a6.074 6.074 0 0 1 2.029 4.545 6.083 6.083 0 0 1-1.791 4.33l-9.436 9.483a1.345 1.345 0 0 1-1.897.008 1.34 1.34 0 0 1-.002-1.896l9.438-9.488A3.423 3.423 0 0 0 29.65 35.4c0-.916-.357-1.778-1.007-2.424a3.423 3.423 0 0 0-2.426-1.003zM1.947 72.8c-.355 0-.695-.14-.947-.395a1.34 1.34 0 0 1-.394-.946V54.905c0-1.508.554-2.956 1.562-4.077l19.73-19.748a6.11 6.11 0 0 1 5.722-1.62l-.016-22.557a6.118 6.118 0 0 1 6.11-6.11c3.376 0 6.12 2.742 6.12 6.11v31.876c0 1.674-.543 2.995-1.765 4.296L20.067 60.341c-.448.473-1.033 1.325-1.033 2.435v8.65c0 .737-.598 1.339-1.337 1.339L1.95 72.8h-.003z" mask="url(#d)"/>
        </g>
        <mask id="f" fill="#fff">
            <use xlink:href="#e"/>
        </mask>
        <path fill="#5FD4AF" d="M41.346 65.785h55.742V29.34H41.346z" mask="url(#f)"/>
        <path fill="#4D4D4D" d="M42.687 64.446h53.062V30.682H42.687v33.764zm-2.68 2.682h58.422V28H40.007v39.128z" mask="url(#f)"/>
        <path fill="#FFF" d="M47.86 55.735c.101-.018.204-.033.303-.033 1.287 0 2.338 1.052 2.33 2.378 0 .007-.01.101-.01.119a.58.58 0 0 0 .155.443c.113.124.268.19.436.19h36.291c.16 0 .319-.066.43-.19a.546.546 0 0 0 .153-.443c0-.018-.005-.144-.01-.155a2.34 2.34 0 0 1 2.334-2.342c.105 0 .204.015.333.04a.605.605 0 0 0 .474-.137c.13-.12.2-.282.2-.45V39.943a.605.605 0 0 0-.217-.446.664.664 0 0 0-.49-.135c-.096.007-.195.029-.3.029a2.334 2.334 0 0 1-2.324-2.497.55.55 0 0 0-.153-.439.587.587 0 0 0-.43-.193H51.074a.59.59 0 0 0-.59.632c0 .018.017.148.017.159a2.34 2.34 0 0 1-2.338 2.338c-.1 0-.202-.022-.335-.036a.628.628 0 0 0-.471.138.602.602 0 0 0-.206.45v15.212c0 .168.09.33.222.45a.628.628 0 0 0 .488.13" mask="url(#f)"/>
        <path fill="#4D4D4D" d="M51.791 57.493h34.846a3.69 3.69 0 0 1 3.301-3.114V40.717a3.652 3.652 0 0 1-2.26-1.059 3.708 3.708 0 0 1-1.034-2.057H51.8a3.69 3.69 0 0 1-3.308 3.116v13.662c.856.077 1.65.446 2.266 1.063a3.687 3.687 0 0 1 1.033 2.05m35.575 2.679H51.075c-.539 0-1.04-.214-1.41-.608a1.923 1.923 0 0 1-.518-1.458 1.016 1.016 0 0 0-.29-.77.98.98 0 0 0-.695-.292l-.394.037c-.484 0-.94-.167-1.283-.477a1.937 1.937 0 0 1-.674-1.449V39.943c0-.542.234-1.07.638-1.439.428-.343.851-.491 1.301-.491l.243.014c.698-.007 1.166-.426 1.166-.973-.05-.596.135-1.125.5-1.516a1.934 1.934 0 0 1 1.416-.616h36.291c.537 0 1.053.229 1.419.63.361.37.554.92.495 1.484 0 .273.106.534.297.727.185.187.43.288.694.288l.384-.034c.466 0 .914.158 1.262.446.462.414.702.941.702 1.48v15.211c0 .55-.234 1.077-.643 1.446-.39.327-.833.488-1.289.488l-.273-.02c-.695.007-1.084.376-1.133.878l.006.254c.052.428-.142.983-.537 1.38-.329.362-.846.591-1.384.591" mask="url(#f)"/>
        <path fill="#4D4D4D" d="M76.696 39.341H48.36v1.845h44.125v-1.845H76.944zM75.488 49.055H47.152v1.842h44.126v-1.842H75.733zM76.719 53.907H48.38v1.445c0 .155.09.288.2.396h43.747a.567.567 0 0 0 .182-.396v-1.445H76.719zM75.488 44.197H47.152v1.848h44.126v-1.848H75.733z" mask="url(#f)"/>
        <path fill="#FFF" d="M73.962 42.745a6.76 6.76 0 0 1-.005 9.53 6.68 6.68 0 0 1-9.48 0c-2.62-2.63-2.625-6.897-.003-9.53a6.685 6.685 0 0 1 9.488 0" mask="url(#f)"/>
        <path fill="#FF5529" d="M73.962 42.745a6.76 6.76 0 0 1-.005 9.53 6.68 6.68 0 0 1-9.48 0" mask="url(#f)"/>
        <path fill="#4D4D4D" d="M69.218 42.066a5.377 5.377 0 0 0-3.832 1.597 5.414 5.414 0 0 0-1.586 3.845c0 1.456.565 2.824 1.588 3.853 2.048 2.058 5.61 2.054 7.657-.003a5.412 5.412 0 0 0 1.587-3.85 5.41 5.41 0 0 0-1.582-3.845 5.371 5.371 0 0 0-3.832-1.597m-.002 13.478a7.945 7.945 0 0 1-5.654-2.35 8.03 8.03 0 0 1-2.34-5.687 8.01 8.01 0 0 1 2.338-5.68c3.026-3.03 8.291-3.03 11.315 0a7.999 7.999 0 0 1 2.338 5.68 7.984 7.984 0 0 1-2.347 5.68 7.898 7.898 0 0 1-5.65 2.358" mask="url(#f)"/>
    </g>
</svg>
