<?xml version="1.0" encoding="UTF-8"?>
<svg width="140px" height="140px" viewBox="0 0 140 140" version="1.1" xmlns="http://www.w3.org/2000/svg" xmlns:xlink="http://www.w3.org/1999/xlink">
    <!-- Generator: sketchtool 46.2 (44496) - http://www.bohemiancoding.com/sketch -->
    <title>93D112C5-57D0-41C5-AF57-5FB3CD558221</title>
    <desc>Created with sketchtool.</desc>
    <defs>
        <polygon id="path-1" points="24.9295967 24.5319149 0.529646719 24.5319149 0.529646719 0.130156964 24.9295967 0.130156964 24.9295967 24.5319149"></polygon>
        <polygon id="path-3" points="77.8689362 77.909617 77.8689362 0.459404255 0.425021277 0.459404255 0.425021277 77.909617 77.8689362 77.909617"></polygon>
    </defs>
    <g id="Final" stroke="none" stroke-width="1" fill="none" fill-rule="evenodd">
        <g id="Investments" transform="translate(-1138.000000, -1195.000000)">
            <rect id="Rectangle-9" fill="#FFFFFF" x="0" y="0" width="1440" height="2468"></rect>
            <g id="Group" transform="translate(81.000000, 1195.000000)">
                <g id="logo-grid">
                    <g id="top">
                        <g id="jon-copy-3" transform="translate(978.000000, 0.000000)">
                            <g id="icon_build" transform="translate(79.000000, 0.000000)">
                                <circle id="Oval-Copy-2" fill="#FF5529" cx="70" cy="70" r="70"></circle>
                                <g id="Page-1" transform="translate(30.000000, 29.000000)">
                                    <path d="M19.1310638,37.9194894 C21.4987234,35.9433191 22.8178723,33.4956596 23.0834043,30.5594894 C23.3506383,27.6199149 22.4995745,24.9833191 20.5234043,22.6326809 C18.5489362,20.2837447 16.0944681,18.9765106 13.16,18.7075745 C10.2255319,18.4386383 7.58723404,19.2811915 5.23829787,21.2369362 C2.89106383,23.194383 1.58042553,25.6369362 1.31319149,28.5714043 C1.04765957,31.5075745 1.89021277,34.1577872 3.84595745,36.5271489 C5.79829787,38.8897021 8.24255319,40.2088511 11.1719149,40.4777872 C14.1097872,40.7433191 16.76,39.8871489 19.1310638,37.9194894" id="Fill-1" fill="#5FD4AF"></path>
                                    <path d="M12.1080851,19.9242553 C9.87659574,19.9242553 7.89531915,20.6731915 6.05021277,22.2119149 C3.94978723,23.96 2.81276596,26.0774468 2.57446809,28.6851064 C2.33787234,31.2995745 3.07148936,33.5991489 4.82297872,35.72 C6.5693617,37.8323404 8.68340426,38.9761702 11.2893617,39.2161702 C13.8646809,39.452766 16.1948936,38.7106383 18.3208511,36.9455319 C20.44,35.1770213 21.5855319,33.0493617 21.8238298,30.4451064 C22.0587234,27.8357447 21.3182979,25.5480851 19.5548936,23.4442553 C17.7880851,21.347234 15.6587234,20.2085106 13.0459574,19.9685106 C12.7276596,19.9412766 12.4161702,19.9242553 12.1080851,19.9242553 M12.2034043,41.7931915 L12.2034043,41.7931915 C11.827234,41.7931915 11.4442553,41.7744681 11.0578723,41.7387234 C7.79319149,41.4408511 5.03744681,39.9582979 2.86723404,37.333617 C0.70212766,34.7089362 -0.244255319,31.7234043 0.0536170213,28.4570213 C0.349787234,25.1923404 1.82042553,22.4365957 4.42638298,20.2629787 C7.02893617,18.0961702 9.99574468,17.1293617 13.2757447,17.4459574 C16.5404255,17.7455319 19.306383,19.2161702 21.4953191,21.8153191 C23.6842553,24.426383 24.6442553,27.4051064 24.3446809,30.6731915 C24.0502128,33.9361702 22.5693617,36.7021277 19.9429787,38.892766 C17.626383,40.8161702 15.0221277,41.7931915 12.2034043,41.7931915" id="Fill-3" fill="#4D4D4D"></path>
                                    <path d="M5.82638298,28.9833191 C5.99319149,27.1501277 6.74893617,25.6999149 8.08851064,24.6428936 C9.43148936,23.5858723 10.987234,23.1331064 12.7591489,23.2965106 C14.5940426,23.4633191 16.0442553,24.2020426 17.1080851,25.514383 C18.1651064,26.8199149 18.6161702,28.3654468 18.4561702,30.1356596 C18.2944681,31.9092766 17.5693617,33.3424681 16.2910638,34.4386383 C15.0110638,35.5331064 13.4519149,35.9994894 11.6170213,35.8326809 C9.84510638,35.6709787 8.39659574,34.9305532 7.27148936,33.6165106 C6.14638298,32.300766 5.66297872,30.7569362 5.82638298,28.9833191" id="Fill-5" fill="#FFFFFF"></path>
                                    <path d="M12.0665532,24.5319149 C10.8631489,24.5319149 9.81974468,24.8944681 8.8733617,25.6382979 C7.80782979,26.4808511 7.22229787,27.6110638 7.08782979,29.0987234 C6.95676596,30.5285106 7.33293617,31.7353191 8.2333617,32.7923404 C9.14570213,33.8578723 10.291234,34.4382979 11.7329362,34.5710638 C13.2086809,34.6970213 14.4427234,34.3514894 15.4708085,33.4748936 C16.4988936,32.5914894 17.064,31.4612766 17.1950638,30.0212766 C17.3261277,28.5761702 16.9754894,27.3625532 16.1210213,26.3123404 C15.276766,25.267234 14.1380426,24.6953191 12.6452766,24.5591489 C12.4495319,24.5404255 12.2571915,24.5319149 12.0665532,24.5319149 M12.3252766,37.132766 C12.0563404,37.132766 11.784,37.1208511 11.5031489,37.093617 C9.39931915,36.9029787 7.65123404,36.0093617 6.30995745,34.4382979 C4.95676596,32.8604255 4.37123404,30.9846809 4.5652766,28.867234 C4.7627234,26.6834043 5.68357447,24.9251064 7.30570213,23.6485106 C8.904,22.387234 10.7729362,21.8357447 12.8750638,22.0348936 C15.0520851,22.2306383 16.8086809,23.1344681 18.0920851,24.7157447 C19.3601702,26.2851064 19.9082553,28.147234 19.7159149,30.2493617 C19.5269787,32.3514894 18.6520851,34.0825532 17.1184681,35.4017021 C15.7686809,36.5523404 14.1584681,37.132766 12.3252766,37.132766" id="Fill-7" fill="#4D4D4D"></path>
                                    <path d="M58.4859574,61.7377021 C56.5012766,59.4211064 54.04,58.1291915 51.0970213,57.8602553 C48.1148936,57.5879149 45.466383,58.4151489 43.1582979,60.3402553 C40.8485106,62.268766 39.5582979,64.682383 39.2944681,67.5862128 C39.0187234,70.563234 39.8459574,73.2525957 41.7625532,75.6389787 C43.6791489,78.0270638 46.1319149,79.3615319 49.1089362,79.6304681 C52.0519149,79.8994043 54.7123404,79.0330213 57.0919149,77.0415319 C59.4680851,75.0415319 60.7906383,72.5513191 61.0646809,69.5691915 C61.3285106,66.6670638 60.4689362,64.0525957 58.4859574,61.7377021" id="Fill-9" fill="#5FD4AF"></path>
                                    <g id="Group-13" transform="translate(37.446809, 56.412936)">
                                        <mask id="mask-2" fill="white">
                                            <use xlink:href="#path-1"></use>
                                        </mask>
                                        <g id="Clip-12"></g>
                                        <path d="M12.555234,2.66348936 C10.301617,2.66348936 8.32714894,3.39540426 6.52289362,4.90008511 C4.46161702,6.62093617 3.34331915,8.70944681 3.1067234,11.2864681 C2.86502128,13.952 3.58331915,16.2890213 5.30246809,18.4337021 C7.01310638,20.564766 9.13225532,21.7171064 11.7773617,21.9571064 C14.4020426,22.1902979 16.6982128,21.4413617 18.8326809,19.6558298 C20.9586383,17.8668936 22.1109787,15.7000851 22.3560851,13.0413617 C22.5909787,10.4677447 21.8454468,8.21242553 20.0769362,6.14774468 C18.301617,4.07455319 16.1603404,2.94944681 13.5356596,2.70774468 C13.2037447,2.67880851 12.875234,2.66348936 12.555234,2.66348936 M12.6965106,24.5324255 C12.6965106,24.5324255 12.6982128,24.5324255 12.6965106,24.5324255 C12.3169362,24.5324255 11.9339574,24.5154043 11.5475745,24.4779574 C8.22842553,24.1800851 5.46246809,22.6788085 3.328,20.0200851 C1.20544681,17.3766809 0.282893617,14.3605106 0.58587234,11.058383 C0.880340426,7.8226383 2.33225532,5.09753191 4.89906383,2.95455319 C7.46246809,0.816680851 10.4514043,-0.119489362 13.7654468,0.186893617 C17.0369362,0.486468085 19.8062979,1.93668085 22.0020426,4.50008511 C24.208,7.07710638 25.1748085,10.0251915 24.8769362,13.2711489 C24.5756596,16.5834894 23.0914043,19.3851915 20.461617,21.5979574 C18.1314043,23.5468936 15.5203404,24.5324255 12.6965106,24.5324255" id="Fill-11" fill="#4D4D4D" mask="url(#mask-2)"></path>
                                    </g>
                                    <path d="M54.2723404,73.4980426 C52.9191489,74.6844255 51.3174468,75.1916596 49.4757447,75.0248511 C47.7004255,74.8631489 46.2825532,74.0801702 45.227234,72.6708085 C44.1719149,71.2648511 43.7242553,69.6682553 43.8859574,67.8895319 C44.0442553,66.1754894 44.7591489,64.8018723 46.0408511,63.7686809 C47.3174468,62.730383 48.8442553,62.2946383 50.6212766,62.4580426 C52.4,62.6197447 53.8689362,63.3278298 55.0365957,64.5891064 C56.2008511,65.8469787 56.7080851,67.3329362 56.5497872,69.0469787 C56.386383,70.8257021 55.627234,72.3048511 54.2723404,73.4980426" id="Fill-14" fill="#FFFFFF"></path>
                                    <path d="M49.9106383,63.6908936 C48.7242553,63.6908936 47.7182979,64.0381277 46.84,64.7530213 C45.827234,65.5683404 45.2740426,66.6338723 45.1480851,68.0074894 C45.0153191,69.4730213 45.3710638,70.7513191 46.2408511,71.908766 C47.0782979,73.0270638 48.172766,73.6347234 49.5906383,73.7640851 C51.0834043,73.8934468 52.346383,73.5036596 53.4374468,72.5453617 C54.5506383,71.5666383 55.1565957,70.3836596 55.2876596,68.9317447 C55.4119149,67.5819574 55.0255319,66.443234 54.106383,65.4474894 C53.1514894,64.4194043 51.9753191,63.8542979 50.5080851,63.7198298 C50.3038298,63.7011064 50.106383,63.6908936 49.9106383,63.6908936 M50.147234,76.3240851 C49.8885106,76.3240851 49.6280851,76.3121702 49.3608511,76.2866383 C47.2195745,76.0908936 45.4851064,75.1308936 44.2119149,73.4304681 C42.9676596,71.7708936 42.4331915,69.8679149 42.6255319,67.7742979 C42.8161702,65.7113191 43.6978723,64.0313191 45.2451064,62.7819574 C46.7753191,61.5411064 48.6357447,61.0015319 50.7361702,61.1955745 C52.826383,61.3862128 54.5846809,62.2372766 55.9668085,63.7266383 C57.3846809,65.2585532 58.0025532,67.0866383 57.8119149,69.163234 C57.6195745,71.2602553 56.7106383,73.0389787 55.1106383,74.4466383 C53.6910638,75.6925957 52.0212766,76.3240851 50.147234,76.3240851" id="Fill-16" fill="#4D4D4D"></path>
                                    <polygon id="Fill-18" fill="#FFFFFF" points="63.7802553 49.9324255 63.7802553 26.7579574 14.188766 76.3596596 3.91812766 66.0924255 53.5164255 16.4924255 30.3402553 16.4924255 30.3402553 1.96987234 78.3045106 1.96987234 78.3045106 49.9324255"></polygon>
                                    <g id="Group-22" transform="translate(1.702128, 0.242723)">
                                        <mask id="mask-4" fill="white">
                                            <use xlink:href="#path-3"></use>
                                        </mask>
                                        <g id="Clip-21"></g>
                                        <path d="M4.008,65.8500426 L12.4862979,74.3249362 L63.3441702,23.4568511 L63.3441702,48.4236596 L75.3339574,48.4236596 L75.3339574,2.99387234 L29.9058723,2.99387234 L29.9058723,14.9836596 L54.874383,14.9836596 L4.008,65.8500426 Z M12.4862979,77.909617 L0.425021277,65.8500426 L48.755234,17.5181277 L27.3714043,17.5181277 L27.3714043,0.459404255 L77.8701277,0.459404255 L77.8701277,50.9581277 L60.8114043,50.9581277 L60.8114043,29.5742979 L12.4862979,77.909617 Z" id="Fill-20" fill="#4D4D4D" mask="url(#mask-4)"></path>
                                    </g>
                                </g>
                            </g>
                        </g>
                    </g>
                </g>
            </g>
        </g>
    </g>
</svg>