<?xml version="1.0" encoding="UTF-8"?>
<svg width="140px" height="140px" viewBox="0 0 140 140" version="1.1" xmlns="http://www.w3.org/2000/svg" xmlns:xlink="http://www.w3.org/1999/xlink">
    <!-- Generator: sketchtool 46.2 (44496) - http://www.bohemiancoding.com/sketch -->
    <title>D80B955E-2E57-4402-9499-EC49955FA7DE</title>
    <desc>Created with sketchtool.</desc>
    <defs></defs>
    <g id="Final" stroke="none" stroke-width="1" fill="none" fill-rule="evenodd">
        <g id="Investments" transform="translate(-812.000000, -1195.000000)">
            <g id="Group" transform="translate(81.000000, 1195.000000)">
                <g id="logo-grid">
                    <g id="top">
                        <g id="jon-copy-2" transform="translate(652.000000, 0.000000)">
                            <g id="icon_knowhow" transform="translate(79.000000, 0.000000)">
                                <circle id="Oval-Copy-2" fill="#FF5529" cx="70" cy="70" r="70"></circle>
                                <g id="Page-1" transform="translate(26.000000, 36.000000)">
                                    <polygon id="Fill-1" fill="#4D4D4D" points="0 66.99726 88.4358 66.99726 88.4358 0.00126 0 0.00126"></polygon>
                                    <polygon id="Fill-2" fill="#FFFFFF" points="2.6784 64.31886 85.7556 64.31886 85.7556 2.68146 2.6784 2.68146"></polygon>
                                    <polygon id="Fill-3" fill="#FF9554" points="34.09092 21.10068 34.09272 15.49008 28.48752 15.49008 24.48972 11.48508 20.48832 15.48108 14.78952 15.48108 14.78412 21.17988 10.83132 25.12728 14.78052 29.08548 14.77872 34.78428 20.47932 34.78788 24.47172 38.78748 28.47312 34.79148 34.08192 34.79688 34.08732 29.18628 38.13372 25.14528"></polygon>
                                    <path d="M16.119,33.444 L21.033,33.4494 L24.4746,36.8928 L27.9216,33.453 L32.7438,33.4566 L32.7474,28.629 L36.2394,25.146 L32.751,21.654 L32.7528,16.83 L27.9306,16.83 L24.4872,13.3812 L21.0438,16.821 L16.1298,16.821 L16.1244,21.7368 L12.726,25.1298 L16.1208,28.5318 L16.119,33.444 Z M24.4728,40.6818 L19.9224,36.1278 L13.4406,36.1242 L13.4406,29.6406 L8.937,25.1262 L13.4478,20.6226 L13.4532,14.1408 L19.9332,14.1408 L24.489,9.5904 L29.043,14.148 L35.433,14.148 L35.4312,20.5452 L40.0284,25.146 L35.4276,29.7414 L35.4222,36.1368 L29.0286,36.1332 L24.4728,40.6818 Z" id="Fill-4" fill="#4D4D4D"></path>
                                    <polygon id="Fill-5" fill="#5FD4AF" points="22.28544 30.51738 19.09944 30.53178 19.08324 27.34038 16.89444 25.17678 19.05804 22.98798 19.04364 19.80018 22.23324 19.78578 24.44364 17.55018 26.67744 19.75878 29.77344 19.74618 29.78964 22.84398 32.07024 25.09938 29.81304 27.37458 29.82744 30.47418 26.72964 30.48678 24.51744 32.72418"></polygon>
                                    <path d="M22.725,29.44332 L24.5088,31.20732 L26.28,29.41812 L28.7514,29.40552 L28.7406,26.93412 L30.5514,25.10712 L28.719,23.29452 L28.7064,20.82132 L26.2404,20.83392 L24.4512,19.06452 L22.6836,20.85552 L20.1204,20.86632 L20.1312,23.42592 L18.4122,25.16832 L20.151,26.89092 L20.1654,29.45592 L22.725,29.44332 Z M24.525,34.24032 L21.8466,31.59072 L18.0324,31.60872 L18.0126,27.79092 L15.3792,25.18452 L17.982,22.55112 L17.9676,18.73332 L21.7836,18.71532 L24.435,16.03332 L27.1152,18.68472 L30.8394,18.67032 L30.861,22.39452 L33.5844,25.09092 L30.888,27.81432 L30.906,31.54212 L27.18,31.55832 L24.525,34.24032 Z" id="Fill-6" fill="#FFFFFF"></path>
                                    <polygon id="Fill-7" fill="#4D4D4D" points="44.55 30.05406 78.1866 30.05406 78.1866 27.37386 44.55 27.37386"></polygon>
                                    <polygon id="Fill-8" fill="#4D4D4D" points="44.55 37.54386 78.1866 37.54386 78.1866 34.86546 44.55 34.86546"></polygon>
                                    <polygon id="Fill-9" fill="#5FD4AF" points="44.55 20.14686 78.1866 20.14686 78.1866 13.71546 44.55 13.71546"></polygon>
                                    <polygon id="Fill-10" fill="#4D4D4D" points="10.2474 56.85066 39.5964 56.85066 39.5964 54.17226 10.2474 54.17226"></polygon>
                                    <polygon id="Fill-11" fill="#4D4D4D" points="10.2474 49.35546 35.3088 49.35546 35.3088 46.67706 10.2474 46.67706"></polygon>
                                    <polygon id="Fill-12" fill="#4D4D4D" points="55.2708 56.85066 78.1866 56.85066 78.1866 54.17226 55.2708 54.17226"></polygon>
                                    <polygon id="Fill-13" fill="#4D4D4D" points="59.5566 49.35546 78.1866 49.35546 78.1866 46.67706 59.5566 46.67706"></polygon>
                                    <polygon id="Fill-14" fill="#4D4D4D" points="43.6572 56.85066 52.461 56.85066 52.461 54.17226 43.6572 54.17226"></polygon>
                                    <polygon id="Fill-15" fill="#4D4D4D" points="39.3678 49.35546 56.7486 49.35546 56.7486 46.67706 39.3678 46.67706"></polygon>
                                </g>
                            </g>
                        </g>
                    </g>
                </g>
            </g>
        </g>
    </g>
</svg>