<svg xmlns="http://www.w3.org/2000/svg" xmlns:xlink="http://www.w3.org/1999/xlink" width="140" height="140" viewBox="0 0 140 140">
    <defs>
        <path id="a" d="M0 80h80V0H0z"/>
    </defs>
    <g fill="none" fill-rule="evenodd" transform="translate(30 30)">
        <path fill="#FFF" d="M10.098 36.036h8.452c.057-.277.13-.54.195-.817v-7.835h3.587a22.632 22.632 0 0 1 5.052-5.06v-3.593h7.864c.26-.058.523-.13.788-.182v-8.465h-8.652V1.44H1.441v25.943h8.657v8.652z"/>
        <path fill="#4D4D4D" d="M11.112 34.7h6.03v-8.566h4.184a23.595 23.595 0 0 1 4.373-4.378v-4.19h8.572v-6.028H25.7v-8.56H2.536v23.156h8.576V34.7zm8.141 2.537H8.575V28.67H0V.443h28.236v8.559h8.572v10.693l-1.026.202c-.15.03-.298.067-.446.103l-.578.103h-6.522v2.936l-.523.38a21.065 21.065 0 0 0-4.722 4.725l-.38.526h-2.934l-.102 7.058c-.04.164-.08.327-.116.494l-.206 1.015z"/>
        <mask id="b" fill="#fff">
            <use xlink:href="#a"/>
        </mask>
        <path fill="#5FD4AF" d="M7.928 20.9H20.9V7.929H7.928z" mask="url(#b)"/>
        <path fill="#4D4D4D" d="M9.038 19.79h10.75V9.04H9.037v10.75zm-2.552 2.552h15.856V6.486H6.486v15.856z" mask="url(#b)"/>
        <path fill="#FFF" d="M70.625 44.685h-8.457c-.054.263-.124.533-.19.791v7.851H58.39a22.517 22.517 0 0 1-5.062 5.065v3.588h-7.84c-.267.06-.532.136-.802.193v8.455h8.642v8.651H79.28V53.327h-8.654v-8.642z" mask="url(#b)"/>
        <path fill="#4D4D4D" d="M54.327 77.466h23.141v-23.14h-8.562v-8.55h-6.022v8.55h-4.18a23.437 23.437 0 0 1-4.377 4.378v4.183h-8.55v6.02h8.55v8.559zM80 80H51.794v-8.56h-8.55V60.778l2.058-.427h6.492v-2.93l.524-.381a20.863 20.863 0 0 0 4.723-4.721l.378-.526h2.933l.038-6.812c.075-.293.13-.506.172-.718l.2-1.02H71.44v8.55H80V80z" mask="url(#b)"/>
        <path fill="#5FD4AF" d="M59.1 72.072h12.972V59.1H59.1z" mask="url(#b)"/>
        <path fill="#4D4D4D" d="M60.932 71.68H71.68V60.932h-10.75V71.68zm-2.554 2.554h15.856V58.378H58.378v15.856z" mask="url(#b)"/>
        <path fill="#FFF" d="M27.383 61.98V58.39a22.399 22.399 0 0 1-5.052-5.062h-3.585v-7.827c-.067-.277-.14-.542-.196-.817h-8.452v8.644H1.44v25.95h25.942v-8.652h8.653v-8.455c-.272-.057-.542-.132-.808-.193h-7.845z" mask="url(#b)"/>
        <path fill="#4D4D4D" d="M2.533 77.466h23.13v-8.558h8.56v-6.021h-8.56v-4.181a23.357 23.357 0 0 1-4.368-4.38h-4.176v-8.55h-6.022v8.55H2.533v23.14zM28.197 80H0V51.793h8.564v-8.55h10.662l.208 1.015c.034.166.075.328.114.491l.104.567v6.477h2.93l.377.528a20.843 20.843 0 0 0 4.712 4.719l.526.38v2.931l7.548.216 1.012.208V71.44h-8.56V80z" mask="url(#b)"/>
        <path fill="#5FD4AF" d="M7.928 72.072H20.9V59.1H7.928z" mask="url(#b)"/>
        <path fill="#4D4D4D" d="M9.038 71.681h10.75V60.93H9.037V71.68zm-2.552 2.553h15.856V58.378H6.486v15.856z" mask="url(#b)"/>
        <path fill="#FFF" d="M53.328 1.441v8.643h-8.643v8.465c.261.053.52.125.78.184h7.863v3.598a22.371 22.371 0 0 1 5.057 5.053h3.594v7.856c.066.264.136.528.188.796h8.459v-8.652h8.653V1.44H53.328z" mask="url(#b)"/>
        <path fill="#4D4D4D" d="M62.884 34.223h6.022v-8.558h8.56V2.532H54.327v8.552h-8.55v6.02h8.55v4.189a23.536 23.536 0 0 1 4.373 4.372h4.184v8.558zm8.554 2.534h-10.68l-.198-1.025a9.06 9.06 0 0 0-.136-.582l-.073-.447v-6.504h-2.936l-.379-.526a20.804 20.804 0 0 0-4.717-4.714l-.525-.38V19.64l-7.104-.109c-.142-.034-.285-.071-.426-.097l-1.02-.206V8.55h8.55V0H80v28.199h-8.562v8.558z" mask="url(#b)"/>
        <path fill="#5FD4AF" d="M59.1 20.9h12.972V7.929H59.1z" mask="url(#b)"/>
        <path fill="#4D4D4D" d="M60.932 19.79H71.68V9.04h-10.75v10.75zm-2.554 2.552h15.856V6.486H58.378v15.856z" mask="url(#b)"/>
        <path fill="#FF5529" d="M56.46 36.494a16.52 16.52 0 0 0-4.281-7.737c-.077-.067-.142-.144-.217-.214a16.546 16.546 0 0 0-7.73-4.282 16.55 16.55 0 0 0-3.873-.477 16.43 16.43 0 0 0-3.863.477 16.571 16.571 0 0 0-7.746 4.282c-.065.07-.136.142-.208.214a16.53 16.53 0 0 0-4.287 7.737 16.529 16.529 0 0 0-.471 3.869c0 1.335.172 2.623.471 3.862a16.474 16.474 0 0 0 4.287 7.734c.067.076.143.148.208.223a16.607 16.607 0 0 0 7.746 4.278c1.24.297 2.53.477 3.863.477 1.334 0 2.627-.18 3.872-.477a16.612 16.612 0 0 0 7.73-4.278c.076-.075.146-.152.221-.223a16.49 16.49 0 0 0 4.278-7.734c.297-1.239.477-2.527.477-3.862 0-1.333-.18-2.623-.477-3.87" mask="url(#b)"/>
        <path fill="#4D4D4D" d="M40.358 24.913a15.44 15.44 0 0 0-3.596.446 15.497 15.497 0 0 0-7.223 3.99l-.202.21a15.424 15.424 0 0 0-3.986 7.202 15.509 15.509 0 0 0-.44 3.604c0 1.173.149 2.385.44 3.598a15.346 15.346 0 0 0 3.993 7.204l.265.287c1.934 1.882 4.43 3.258 7.15 3.91 2.48.596 4.718.596 7.21 0a15.487 15.487 0 0 0 7.205-3.986l.236-.24a15.326 15.326 0 0 0 3.953-7.171c.302-1.251.446-2.43.446-3.602 0-1.156-.15-2.37-.446-3.608a15.388 15.388 0 0 0-3.991-7.207l.699-1.116-.9.916a15.435 15.435 0 0 0-7.202-3.99 15.36 15.36 0 0 0-3.611-.447m0 33.465c-1.36 0-2.773-.174-4.2-.515a18.066 18.066 0 0 1-8.416-4.65l.687-1.143-.914.904a17.938 17.938 0 0 1-4.66-8.407 18.011 18.011 0 0 1-.513-4.202c0-1.375.173-2.79.511-4.205a18.007 18.007 0 0 1 4.66-8.411l.181-.185c2.385-2.332 5.295-3.944 8.466-4.7 2.868-.694 5.518-.696 8.407 0a18.002 18.002 0 0 1 8.404 4.652l-.686 1.13.862-.954c2.348 2.393 3.96 5.303 4.716 8.47.341 1.43.515 2.843.515 4.203 0 1.378-.169 2.753-.515 4.202a17.955 17.955 0 0 1-4.654 8.405l-.24.24a18.062 18.062 0 0 1-8.402 4.65 17.865 17.865 0 0 1-4.21.516" mask="url(#b)"/>
        <path fill="#FFF" d="M44.752 46.652a3.502 3.502 0 0 1-.79 1.222 4.205 4.205 0 0 1-1.28.862c-.51.22-1.094.37-1.748.424l.515-7.458c.492.16.959.337 1.387.526.433.188.814.412 1.136.67.322.269.578.572.764.934.183.357.279.787.279 1.284 0 .564-.09 1.076-.263 1.536zm-4.786-8.051c-.473-.157-.91-.333-1.315-.535a4.904 4.904 0 0 1-1.053-.707 2.964 2.964 0 0 1-.712-.935c-.17-.352-.256-.77-.256-1.25 0-.41.073-.799.223-1.177a2.93 2.93 0 0 1 .689-1.01c.31-.302.7-.549 1.182-.744.473-.203 1.04-.331 1.7-.391l-.458 6.749zm7.083 3.812a4.938 4.938 0 0 0-1.37-1.542 7.61 7.61 0 0 0-1.903-1.004 32.006 32.006 0 0 0-2.15-.721l.5-7.251c.494.072.933.19 1.319.353.38.164.72.33 1.011.495.296.162.541.307.748.433.206.128.378.188.517.188.265 0 .496-.153.698-.45l.653-.987a9.09 9.09 0 0 0-2.057-1.483c-.77-.41-1.678-.683-2.741-.81l.219-2.967h-1.002a.686.686 0 0 0-.53.23.912.912 0 0 0-.222.508l-.152 2.187c-1.047 0-1.975.169-2.782.514-.806.348-1.481.79-2.033 1.332a5.645 5.645 0 0 0-1.251 1.854 5.478 5.478 0 0 0-.428 2.139c0 .97.163 1.776.489 2.426a4.731 4.731 0 0 0 1.3 1.601 6.858 6.858 0 0 0 1.825 1.04c.683.266 1.373.502 2.082.714l-.56 7.948c-.69-.079-1.276-.232-1.764-.46a8.884 8.884 0 0 1-1.26-.716 20.146 20.146 0 0 1-.892-.652c-.239-.184-.456-.283-.65-.283a.833.833 0 0 0-.407.105.834.834 0 0 0-.302.27l-.8 1.228a9.149 9.149 0 0 0 2.59 1.852c1.004.488 2.118.776 3.331.888l-.224 3.383h.997a.701.701 0 0 0 .518-.212.82.82 0 0 0 .235-.502l.183-2.686c1.077 0 2.034-.183 2.875-.566a6.593 6.593 0 0 0 2.132-1.46 6.144 6.144 0 0 0 1.324-2.09c.305-.79.453-1.638.453-2.535 0-.928-.173-1.695-.519-2.311z" mask="url(#b)"/>
    </g>
</svg>
